<?xml version="1.0" encoding="UTF-8" ?>
<!DOCTYPE svg PUBLIC "-//W3C//DTD SVG 1.1//EN" "http://www.w3.org/Graphics/SVG/1.1/DTD/svg11.dtd">
<svg width="1665pt" height="545pt" viewBox="0 0 1665 545" version="1.1" xmlns="http://www.w3.org/2000/svg">
<path fill="#fdfefd" d=" M 0.00 0.00 L 1665.00 0.00 L 1665.00 545.00 L 0.00 545.00 L 0.00 0.00 Z" />
<path fill="#26bf07" d=" M 258.07 5.12 C 306.08 1.46 355.06 11.04 398.06 32.77 C 444.05 55.85 483.13 92.46 509.06 136.90 C 532.35 176.42 545.05 222.07 545.62 267.92 C 546.36 312.03 535.95 356.30 515.45 395.38 C 497.49 429.88 471.87 460.35 441.02 484.03 C 411.84 506.55 377.94 522.90 342.15 531.69 C 297.98 542.57 251.03 542.00 207.17 529.92 C 164.95 518.39 125.72 496.19 94.02 466.03 C 58.83 432.81 32.88 389.88 20.07 343.19 C 3.72 284.35 8.27 219.87 33.12 164.05 C 50.53 124.54 77.70 89.36 111.54 62.55 C 153.11 29.23 204.92 8.89 258.07 5.12 Z" />
<path fill="#020202" d=" M 633.48 109.25 C 662.62 94.29 695.73 89.18 728.17 88.68 C 758.47 88.42 788.80 92.29 818.08 100.08 C 839.49 105.47 860.28 113.51 879.57 124.29 C 894.27 132.71 908.32 143.03 918.40 156.82 C 925.00 165.84 929.54 176.65 929.75 187.94 C 930.23 208.59 922.18 229.23 908.12 244.31 C 891.51 262.30 868.32 272.71 844.84 278.34 C 860.14 285.27 873.00 297.38 880.82 312.25 C 890.70 331.10 893.06 353.38 889.10 374.16 C 883.01 407.92 860.53 438.07 830.29 454.12 C 811.03 464.47 789.27 469.82 767.46 470.63 C 744.10 471.49 720.79 468.23 697.94 463.65 C 677.47 459.47 657.42 453.44 637.82 446.27 C 633.33 444.36 628.84 441.52 626.85 436.86 C 623.75 429.62 625.67 421.62 625.24 414.03 C 625.95 352.54 629.02 290.13 647.20 230.96 C 653.94 208.32 663.66 186.43 677.12 166.96 C 685.80 160.58 696.06 155.56 707.01 155.07 C 714.25 154.75 721.55 157.19 727.19 161.75 C 732.95 166.10 736.82 172.33 740.47 178.44 C 732.33 189.18 725.44 200.93 720.81 213.62 C 715.02 227.88 711.05 242.81 707.88 257.85 C 702.53 285.30 699.64 313.19 698.15 341.10 C 697.05 358.38 696.38 375.70 696.49 393.03 C 696.37 397.67 696.74 402.34 697.89 406.85 C 711.26 410.89 724.95 414.20 738.92 415.23 C 757.38 416.64 776.41 414.58 793.60 407.42 C 807.99 401.38 820.49 390.34 827.01 376.03 C 831.75 365.79 832.93 354.25 832.38 343.09 C 831.90 334.52 827.02 326.78 820.47 321.47 C 812.59 315.01 802.66 312.04 793.05 309.20 C 778.05 304.61 762.19 302.29 748.20 294.87 C 739.51 290.10 731.73 282.12 730.37 271.92 C 729.65 265.65 729.42 258.95 731.94 253.04 C 734.55 247.22 740.88 244.24 746.92 243.50 C 756.54 242.35 766.26 243.24 775.88 243.97 C 796.44 245.30 817.87 242.98 836.28 233.15 C 848.83 226.65 859.78 215.75 863.56 201.83 C 864.99 195.90 865.96 189.37 863.49 183.58 C 860.79 177.33 855.42 172.68 849.72 169.20 C 833.15 159.26 813.96 154.93 795.08 151.94 C 762.52 147.48 729.27 148.07 696.87 153.53 C 677.84 157.40 658.19 162.37 642.52 174.41 C 635.84 179.25 632.92 187.18 628.61 193.88 C 621.80 204.92 614.62 216.02 604.82 224.68 C 600.23 228.67 594.41 232.28 588.06 231.32 C 583.13 230.76 579.36 226.75 577.72 222.27 C 574.88 214.90 574.87 206.80 575.21 199.02 C 575.75 180.41 581.07 161.84 591.27 146.19 C 601.49 130.19 616.60 117.72 633.48 109.25 Z" />
<path fill="#020202" d=" M 968.54 155.79 C 981.59 153.91 995.91 155.30 1006.99 163.00 C 1014.97 168.71 1019.49 178.50 1019.56 188.22 C 1019.71 198.26 1017.26 208.77 1010.76 216.65 C 1002.66 226.69 989.79 232.13 977.04 232.49 C 968.03 232.63 958.65 231.86 950.53 227.62 C 940.24 222.40 933.63 211.34 932.86 199.95 C 931.35 187.83 936.51 175.49 945.10 167.03 C 951.59 161.11 959.83 157.08 968.54 155.79 Z" />
<path fill="#fdfefd" d=" M 107.04 155.55 C 147.52 170.22 187.65 185.91 227.20 202.96 C 246.72 211.46 266.11 220.28 285.09 229.93 C 300.20 237.77 315.26 245.86 329.09 255.83 C 347.12 268.37 359.34 288.12 365.07 309.09 C 371.32 332.06 368.92 357.22 358.54 378.63 C 349.19 398.32 333.15 414.59 313.96 424.81 C 294.49 435.19 271.57 438.85 249.83 435.15 C 225.79 431.08 203.30 417.97 188.21 398.79 C 178.16 384.80 171.53 368.74 165.05 352.87 C 151.30 317.91 140.50 281.87 130.28 245.74 C 121.92 215.83 114.19 185.76 107.04 155.55 Z" />
<path fill="#fdfefd" d=" M 335.33 239.66 C 371.53 216.65 410.10 197.68 449.00 179.74 C 445.29 205.97 440.82 232.09 435.56 258.05 C 431.04 279.61 426.24 301.18 419.02 322.01 C 415.76 331.12 412.15 340.36 405.86 347.85 C 399.38 356.16 390.70 362.64 381.03 366.76 C 383.18 356.32 385.84 345.82 385.56 335.07 C 385.70 319.58 382.74 304.03 376.54 289.81 C 386.63 274.92 396.55 259.57 402.45 242.45 C 390.84 253.19 380.02 264.79 370.25 277.23 C 365.45 269.68 360.72 262.00 354.70 255.33 C 349.02 249.22 342.08 244.50 335.33 239.66 Z" />
<path fill="#26bf07" d=" M 186.64 244.92 C 212.65 260.53 233.82 282.61 254.90 304.09 C 270.59 321.34 285.81 339.28 297.60 359.48 C 301.23 365.50 303.80 372.08 306.01 378.74 C 258.69 341.70 218.22 296.02 186.64 244.92 Z" />
<path fill="#020202" d=" M 941.48 250.36 C 951.06 246.64 961.71 244.64 971.92 246.56 C 978.07 247.55 983.27 252.33 984.71 258.41 C 986.37 265.64 984.35 273.03 982.72 280.08 C 974.60 312.29 963.30 343.85 958.97 376.91 C 958.36 384.58 957.35 392.60 959.86 400.03 C 960.40 401.76 962.64 401.23 964.00 401.19 C 968.90 400.50 973.45 398.30 977.55 395.61 C 984.62 391.31 991.35 386.43 997.60 381.01 C 992.61 349.46 997.66 315.41 1015.66 288.57 C 1030.52 266.12 1055.35 250.72 1082.00 247.10 C 1105.42 243.53 1129.81 247.37 1151.05 257.84 C 1167.51 265.71 1182.41 276.71 1195.35 289.53 C 1197.67 279.30 1200.31 269.07 1204.53 259.44 C 1207.11 253.50 1211.99 248.26 1218.49 246.77 C 1225.51 245.30 1232.76 245.67 1239.87 246.19 C 1244.66 246.52 1249.85 247.98 1252.91 251.94 C 1255.51 255.05 1256.15 259.22 1256.36 263.14 C 1257.21 278.36 1254.78 293.51 1252.63 308.53 C 1262.38 292.26 1271.76 275.62 1283.85 260.93 C 1288.62 255.73 1293.67 250.28 1300.48 247.84 C 1310.38 244.16 1322.39 245.36 1330.61 252.30 C 1335.89 256.55 1338.79 263.28 1338.94 270.00 C 1339.29 282.41 1336.97 294.71 1334.11 306.74 C 1344.13 291.05 1353.63 274.91 1365.43 260.45 C 1370.15 255.14 1375.10 249.32 1382.17 247.21 C 1393.32 243.82 1406.66 246.61 1414.65 255.38 C 1418.21 259.40 1419.97 264.76 1420.18 270.08 C 1421.01 306.36 1409.84 341.77 1411.11 378.08 C 1411.43 382.89 1412.47 387.70 1414.81 391.95 C 1426.15 389.76 1435.84 382.60 1444.15 374.91 C 1443.98 365.32 1443.48 355.55 1444.93 345.96 C 1447.52 323.52 1455.28 301.62 1467.92 282.85 C 1478.20 267.69 1493.02 255.21 1510.54 249.41 C 1529.91 243.31 1552.32 245.10 1569.29 256.75 C 1582.91 265.88 1591.57 281.66 1592.52 297.97 C 1594.09 315.01 1587.30 331.72 1577.22 345.16 C 1561.63 366.13 1538.62 380.59 1514.19 389.13 C 1517.27 393.32 1521.65 396.98 1527.10 397.16 C 1537.88 397.73 1548.61 394.93 1558.44 390.65 C 1574.88 384.18 1589.91 374.62 1603.98 364.02 C 1611.44 358.27 1618.55 352.05 1625.10 345.27 C 1636.70 357.49 1648.52 369.51 1660.11 381.75 C 1645.46 396.99 1629.70 411.30 1611.99 422.93 C 1594.39 434.80 1575.15 444.56 1554.46 449.65 C 1533.88 454.54 1511.34 455.05 1491.72 446.24 C 1480.09 441.00 1469.80 432.82 1462.17 422.60 C 1444.73 437.50 1424.07 450.25 1400.80 452.60 C 1393.82 453.14 1386.41 454.09 1379.81 451.17 C 1373.02 448.25 1368.31 442.03 1365.26 435.50 C 1360.48 425.06 1358.82 413.52 1358.02 402.15 C 1356.79 388.44 1357.44 374.67 1357.79 360.93 C 1350.42 381.16 1342.13 401.04 1334.40 421.13 C 1331.41 428.04 1329.71 435.76 1324.41 441.40 C 1318.37 449.10 1308.53 452.81 1298.96 453.11 C 1292.28 453.69 1284.91 451.93 1280.42 446.66 C 1274.14 440.05 1271.64 430.86 1270.65 422.03 C 1268.21 400.31 1273.55 378.81 1276.14 357.36 C 1263.34 383.80 1251.09 410.51 1237.75 436.69 C 1234.30 443.63 1228.40 449.69 1220.77 451.81 C 1210.59 454.74 1198.31 453.23 1190.63 445.42 C 1184.31 439.32 1181.67 430.53 1180.33 422.09 C 1178.52 409.61 1179.13 396.93 1180.18 384.41 C 1181.69 367.73 1183.85 351.11 1186.58 334.59 C 1175.62 325.02 1163.79 316.50 1151.99 308.02 C 1155.67 320.34 1157.77 333.16 1157.76 346.03 C 1157.32 370.65 1149.61 395.18 1135.58 415.44 C 1124.78 431.52 1108.71 444.23 1090.17 450.09 C 1077.55 453.94 1063.93 454.06 1051.13 451.05 C 1035.89 447.12 1022.64 436.97 1013.82 424.06 C 1003.25 431.18 992.11 437.42 980.42 442.49 C 967.55 447.92 954.08 452.76 939.97 453.13 C 927.61 453.71 914.26 450.89 905.23 441.89 C 897.21 434.14 894.36 422.75 893.70 411.97 C 892.56 394.85 895.86 377.87 899.09 361.14 C 905.21 330.55 913.75 300.51 921.22 270.24 C 923.64 260.40 932.62 254.06 941.48 250.36 Z" />
<path fill="#fdfefd" d=" M 1085.23 298.19 C 1089.27 297.09 1094.06 297.83 1096.96 301.05 C 1102.04 306.42 1103.77 313.97 1104.95 321.06 C 1107.49 338.25 1104.77 355.88 1099.09 372.20 C 1095.54 381.98 1090.99 391.97 1082.92 398.86 C 1079.35 402.18 1074.05 401.48 1069.80 400.17 C 1062.90 397.90 1058.45 391.32 1056.57 384.60 C 1052.63 371.05 1054.10 356.61 1057.05 343.02 C 1059.75 332.36 1063.54 321.83 1069.53 312.55 C 1073.55 306.73 1078.22 300.47 1085.23 298.19 Z" />
<path fill="#fdfefd" d=" M 1513.91 311.96 C 1517.76 304.84 1524.64 298.91 1532.91 298.03 C 1535.16 297.93 1538.37 296.78 1539.55 299.53 C 1543.24 305.98 1543.93 314.95 1539.02 320.99 C 1530.91 331.90 1519.21 340.29 1506.15 344.13 C 1506.95 333.10 1508.72 321.86 1513.91 311.96 Z" />
</svg>
